<?xml version="1.0" encoding="UTF-8"?>
<svg xmlns="http://www.w3.org/2000/svg" xmlns:xlink="http://www.w3.org/1999/xlink" width="256px" height="256px" viewBox="0 0 256 256" version="1.1">
<g id="surface86042">
<path style=" stroke:none;fill-rule:nonzero;fill:rgb(100%,100%,100%);fill-opacity:1;" d="M 104.703125 2.84375 C 100.75 2.859375 96.890625 4.03125 93.5625 6.28125 C 89.078125 9.328125 86.078125 13.875 85.078125 19.15625 L 79.3125 49.953125 C 63.078125 54.328125 52 61.046875 52 70 C 52 78.09375 61.046875 84.359375 74.796875 88.703125 C 68.1875 90.5 65.453125 100.109375 68.390625 111.125 C 70.5625 119.078125 75.046875 125.078125 79.953125 126.921875 C 81.59375 132 83.765625 137.03125 86.390625 141.875 L 37 165.515625 C 21.84375 172.796875 12 188.359375 12 205.203125 L 12 236 C 12 242.59375 17.40625 248 24 248 L 240 248 C 246.59375 248 252 242.59375 252 236 L 252 205.203125 C 252 188.359375 242.15625 172.796875 227 165.515625 L 177.609375 141.875 C 180.234375 137.046875 182.390625 132 184.078125 126.921875 C 188.953125 125.078125 193.4375 119.078125 195.609375 111.125 C 198.546875 100.109375 195.8125 90.5 189.203125 88.703125 C 202.953125 84.34375 212 78.09375 212 70 C 212 61.046875 200.921875 54.328125 184.6875 49.953125 L 178.921875 19.15625 C 177.921875 13.875 174.921875 9.328125 170.4375 6.28125 C 166 3.28125 160.59375 2.203125 155.3125 3.25 L 146.921875 4.921875 C 137 6.921875 127 6.921875 117.078125 4.921875 L 108.6875 3.25 C 107.359375 2.984375 106.03125 2.84375 104.703125 2.84375 Z M 104.703125 10.859375 C 105.5 10.859375 106.28125 10.921875 107.078125 11.078125 L 115.515625 12.796875 C 126.4375 14.953125 137.5625 14.953125 148.484375 12.796875 L 156.921875 11.078125 C 160.078125 10.484375 163.28125 11.125 165.953125 12.921875 C 168.640625 14.71875 170.4375 17.484375 171.046875 20.640625 L 176.15625 48 L 177.75 56.5625 L 179.390625 65.203125 C 148.390625 74.078125 115.84375 74.125 84.609375 65.203125 L 86 57.765625 C 101.046875 61.75 116.421875 63.859375 131.921875 63.859375 C 136.375 63.859375 140.84375 63.6875 145.3125 63.359375 C 147.53125 63.203125 149.171875 61.28125 149.015625 59.078125 C 148.859375 56.875 146.90625 55.21875 144.734375 55.375 C 125.40625 56.8125 106.15625 54.96875 87.46875 49.9375 L 87.84375 48 L 92.953125 20.640625 C 93.5625 17.484375 95.359375 14.71875 98.046875 12.921875 C 100.046875 11.578125 102.359375 10.875 104.703125 10.859375 Z M 166.140625 52.4375 C 163.3125 53 160.46875 53.515625 157.609375 53.9375 C 155.421875 54.265625 153.921875 56.296875 154.25 58.5 C 154.546875 60.46875 156.25 61.890625 158.1875 61.890625 C 158.390625 61.890625 158.59375 61.890625 158.796875 61.859375 C 161.78125 61.40625 164.765625 60.875 167.734375 60.265625 C 169.890625 59.84375 171.296875 57.71875 170.859375 55.5625 C 170.421875 53.40625 168.296875 52 166.140625 52.4375 Z M 77.6875 58.796875 L 76.078125 67.28125 C 75.671875 69.28125 77.125 71.28125 79.078125 71.875 C 96.359375 77.25 114.203125 79.875 132 79.875 C 149.796875 79.875 167.640625 77.25 184.953125 71.875 L 185.203125 71.84375 C 187.125 71.25 188.328125 69.234375 187.921875 67.28125 L 186.3125 58.796875 C 197.6875 62.28125 204 66.515625 204 70 C 204 77.3125 175.953125 88 132 88 C 88.046875 88 60 77.3125 60 70 C 60 66.515625 66.3125 62.28125 77.6875 58.796875 Z M 84.3125 91.25 C 98.21875 94.390625 115.15625 96 132 96 C 148.84375 96 165.765625 94.390625 179.6875 91.25 C 179.703125 91.375 179.703125 91.5 179.71875 91.625 L 168.84375 113.375 C 166.796875 117.453125 162.6875 120 158.109375 120 L 148.9375 120 C 147.40625 120 146.046875 119.15625 145.359375 117.796875 L 142.734375 112.53125 C 140.6875 108.4375 136.5625 105.890625 132 105.890625 C 127.421875 105.890625 123.3125 108.4375 121.25 112.53125 L 118.625 117.796875 C 117.953125 119.15625 116.578125 120 115.0625 120 L 105.890625 120 C 101.3125 120 97.203125 117.453125 95.15625 113.375 L 84.28125 91.609375 C 84.296875 91.484375 84.296875 91.359375 84.3125 91.25 Z M 76.84375 96.390625 C 76.890625 96.390625 77.203125 96.4375 77.953125 96.875 L 77.96875 96.875 L 88 116.9375 C 91.40625 123.765625 98.265625 128 105.890625 128 L 115.0625 128 C 119.625 128 123.734375 125.453125 125.796875 121.375 L 128.421875 116.109375 C 129.109375 114.71875 130.453125 113.890625 132 113.890625 C 133.546875 113.890625 134.890625 114.71875 135.578125 116.109375 L 138.203125 121.375 C 140.25 125.453125 144.359375 128 148.9375 128 L 158.109375 128 C 165.734375 128 172.59375 123.765625 176 116.9375 L 186.03125 96.875 L 186.046875 96.875 C 186.765625 96.4375 187.125 96.390625 187.125 96.390625 C 188.078125 96.671875 189.875 101.5625 187.875 109.046875 C 186.875 112.71875 185.4375 115.359375 184.125 117.046875 C 182.75 118.71875 181.515625 119.515625 180.953125 119.515625 L 180.921875 119.515625 C 179.15625 119.515625 177.59375 120.671875 177.125 122.390625 C 175.515625 127.84375 173.234375 133.3125 170.484375 138.484375 C 169.203125 140.84375 167.796875 143.15625 166.28125 145.359375 C 157.59375 158.3125 145.4375 168 132 168 C 118.5625 168 106.40625 158.3125 97.71875 145.359375 C 96.203125 143.15625 94.84375 140.84375 93.5625 138.484375 C 90.796875 133.3125 88.515625 127.84375 86.921875 122.390625 C 86.40625 120.671875 84.84375 119.515625 83.078125 119.515625 C 81.875 119.515625 78.125 116.40625 76.125 109.046875 C 75.4375 106.5625 75.203125 104.40625 75.203125 102.5625 C 75.203125 98.84375 76.25 96.59375 76.84375 96.390625 Z M 84.96875 151.453125 L 115.765625 240 L 106 240 L 73 196 L 83.203125 182.390625 C 83.84375 181.546875 84.109375 180.484375 83.953125 179.4375 L 80.28125 153.6875 Z M 179.03125 151.453125 L 183.71875 153.6875 L 180.046875 179.4375 C 179.890625 180.484375 180.15625 181.546875 180.796875 182.40625 L 190.921875 195.890625 L 156.90625 237.46875 C 156.296875 238.203125 156.0625 239.109375 156.0625 240 L 148.234375 240 Z M 94.390625 154.234375 C 104.265625 166.9375 117.40625 176 132 176 C 146.59375 176 159.734375 166.9375 169.609375 154.234375 L 140.234375 238.6875 C 140.078125 239.125 140.046875 239.5625 140.046875 240 L 123.953125 240 C 123.953125 239.5625 123.9375 239.125 123.78125 238.6875 Z M 72.71875 157.3125 L 75.8125 178.921875 L 64.796875 193.609375 C 63.734375 195.015625 63.734375 196.984375 64.796875 198.390625 L 96 240 L 24 240 C 21.796875 240 20 238.203125 20 236 L 20 205.203125 C 20 191.4375 28.03125 178.671875 40.484375 172.71875 Z M 191.28125 157.3125 L 223.515625 172.734375 C 235.953125 178.6875 244 191.4375 244 205.203125 L 244 236 C 244 238.203125 242.203125 240 240 240 L 165.171875 240 L 199.09375 198.53125 C 200.265625 197.109375 200.3125 195.078125 199.203125 193.609375 L 188.1875 178.9375 Z M 32 216 C 29.796875 216 28 217.796875 28 220 L 28 228 C 28 230.203125 29.796875 232 32 232 C 34.203125 232 36 230.203125 36 228 L 36 220 C 36 217.796875 34.203125 216 32 216 Z M 52 216 C 49.796875 216 48 217.796875 48 220 L 48 228 C 48 230.203125 49.796875 232 52 232 C 54.203125 232 56 230.203125 56 228 L 56 220 C 56 217.796875 54.203125 216 52 216 Z M 72 216 C 69.796875 216 68 217.796875 68 220 L 68 228 C 68 230.203125 69.796875 232 72 232 C 74.203125 232 76 230.203125 76 228 L 76 220 C 76 217.796875 74.203125 216 72 216 Z M 192 216 C 189.796875 216 188 217.796875 188 220 L 188 228 C 188 230.203125 189.796875 232 192 232 C 194.203125 232 196 230.203125 196 228 L 196 220 C 196 217.796875 194.203125 216 192 216 Z M 212 216 C 209.796875 216 208 217.796875 208 220 L 208 228 C 208 230.203125 209.796875 232 212 232 C 214.203125 232 216 230.203125 216 228 L 216 220 C 216 217.796875 214.203125 216 212 216 Z M 232 216 C 229.796875 216 228 217.796875 228 220 L 228 228 C 228 230.203125 229.796875 232 232 232 C 234.203125 232 236 230.203125 236 228 L 236 220 C 236 217.796875 234.203125 216 232 216 Z M 232 216 "/>
</g>
</svg>
